<?xml version="1.0" standalone="no"?>
<!DOCTYPE svg PUBLIC "-//W3C//DTD SVG 20010904//EN"
 "http://www.w3.org/TR/2001/REC-SVG-20010904/DTD/svg10.dtd">
<svg version="1.0" xmlns="http://www.w3.org/2000/svg"
 width="840.000000pt" height="859.000000pt" viewBox="0 0 840.000000 859.000000"
 preserveAspectRatio="xMidYMid meet">

<g transform="translate(0.000000,859.000000) scale(0.100000,-0.100000)"
fill="#000000" stroke="none">
<path d="M3784 8464 c-6 -3 -69 -11 -140 -19 -209 -24 -348 -49 -481 -89 -28
-9 -61 -16 -73 -16 -11 0 -28 -4 -38 -9 -9 -6 -44 -17 -77 -27 -58 -16 -259
-86 -300 -104 -11 -5 -43 -18 -70 -29 -28 -10 -85 -35 -128 -55 -43 -20 -83
-36 -88 -36 -5 0 -9 -3 -9 -7 0 -5 -21 -17 -48 -27 -26 -11 -49 -22 -52 -25
-3 -3 -25 -16 -50 -29 -25 -12 -76 -40 -115 -62 -38 -23 -80 -46 -92 -52 -13
-6 -23 -15 -23 -20 0 -4 -7 -8 -15 -8 -8 0 -15 -4 -15 -9 0 -5 -11 -12 -25
-15 -14 -4 -25 -11 -25 -16 0 -6 -5 -10 -10 -10 -6 0 -16 -5 -23 -10 -7 -6
-66 -49 -132 -96 -66 -47 -122 -88 -125 -92 -3 -4 -25 -23 -50 -42 -63 -49
-79 -62 -109 -90 -14 -14 -42 -38 -61 -54 -142 -116 -514 -523 -554 -607 -5
-11 -13 -19 -18 -19 -4 0 -8 -5 -8 -10 0 -6 -11 -23 -25 -38 -14 -15 -25 -32
-25 -39 0 -6 -3 -13 -7 -15 -5 -1 -30 -37 -58 -78 -27 -41 -52 -77 -55 -80 -3
-3 -10 -14 -16 -25 -46 -84 -80 -145 -99 -175 -12 -19 -52 -98 -89 -175 -80
-165 -77 -158 -116 -260 -17 -44 -35 -89 -40 -100 -4 -11 -16 -42 -25 -70 -10
-27 -21 -59 -25 -70 -4 -11 -15 -47 -25 -80 -9 -33 -21 -69 -25 -80 -8 -20
-23 -76 -40 -145 -63 -272 -76 -345 -107 -620 -30 -266 -21 -801 16 -1005 5
-27 15 -84 21 -125 16 -99 42 -223 70 -330 5 -19 14 -55 20 -80 5 -25 14 -54
19 -65 5 -11 17 -49 27 -85 9 -36 21 -69 24 -75 4 -5 10 -21 13 -35 6 -28 49
-146 65 -176 21 -41 42 -95 42 -109 0 -8 5 -15 10 -15 6 0 10 -9 10 -19 0 -11
4 -22 9 -26 5 -3 12 -19 16 -35 4 -17 10 -30 13 -30 4 0 16 -21 26 -48 11 -26
22 -49 25 -52 9 -8 41 -71 41 -81 0 -5 25 -49 55 -98 30 -49 55 -94 55 -100 0
-6 5 -11 10 -11 6 0 10 -4 10 -8 0 -9 100 -167 119 -189 6 -7 11 -15 11 -18 0
-4 6 -13 12 -20 30 -33 38 -45 38 -54 0 -5 4 -11 8 -13 4 -2 30 -32 57 -68 27
-36 52 -67 55 -70 3 -3 16 -18 29 -35 99 -130 422 -455 551 -555 25 -19 56
-45 70 -58 14 -13 43 -36 65 -50 22 -15 49 -35 60 -45 11 -10 52 -39 90 -65
39 -26 72 -49 75 -52 10 -10 45 -31 63 -36 9 -4 17 -9 17 -13 0 -4 17 -15 38
-26 20 -11 43 -26 50 -32 7 -7 20 -13 28 -13 8 0 14 -3 14 -7 0 -5 10 -13 23
-19 63 -30 152 -80 155 -86 2 -5 8 -8 13 -8 8 0 179 -78 221 -101 10 -5 24 -9
32 -9 8 0 16 -4 18 -8 1 -4 55 -27 118 -51 63 -24 129 -49 147 -57 17 -8 40
-14 50 -14 11 0 23 -3 27 -7 10 -10 118 -43 143 -43 12 0 24 -4 27 -9 4 -5 29
-12 56 -16 27 -4 52 -11 56 -16 3 -5 18 -9 34 -9 16 0 40 -4 55 -10 39 -15
178 -40 330 -59 50 -7 110 -17 135 -23 66 -15 660 -22 815 -9 207 18 368 41
520 76 39 9 88 20 110 25 70 15 129 30 155 39 14 5 52 17 85 26 33 9 69 20 80
25 11 5 29 11 40 13 27 7 157 55 175 65 8 4 41 17 73 27 31 11 57 23 57 27 0
4 7 8 16 8 9 0 28 6 42 14 15 8 79 39 142 70 119 58 190 97 273 147 26 16 52
29 57 29 6 0 10 4 10 9 0 5 10 13 23 17 12 4 24 10 27 13 3 4 33 26 68 49 34
23 90 61 125 84 34 23 64 45 67 48 3 3 25 21 50 40 25 19 47 38 48 42 2 5 8 8
14 8 6 0 20 10 32 23 11 12 35 32 51 45 108 83 390 364 476 474 18 24 44 53
56 65 13 12 23 27 23 33 0 5 3 10 8 10 4 0 23 23 42 50 19 27 38 50 43 50 4 0
7 4 7 10 0 5 29 49 64 97 34 49 71 103 82 120 10 18 22 33 26 33 4 0 8 6 8 14
0 8 6 21 13 28 6 7 21 29 31 48 11 19 22 37 25 40 11 9 171 324 206 405 7 17
25 56 39 88 14 32 26 64 26 72 0 7 4 16 9 20 5 3 13 20 17 37 3 18 10 39 14
48 23 47 40 93 40 109 0 10 3 21 6 24 11 11 43 110 44 133 0 11 3 24 7 28 5 4
14 31 21 59 7 29 17 68 22 87 19 70 41 176 51 233 5 33 12 63 15 68 6 10 15
80 41 304 24 208 24 625 1 830 -26 215 -46 338 -83 485 -9 36 -19 81 -22 100
-3 19 -9 40 -13 45 -4 6 -11 30 -15 55 -4 24 -11 51 -15 60 -4 8 -15 40 -25
70 -9 30 -20 64 -24 75 -5 11 -13 36 -20 55 -43 127 -54 156 -62 164 -5 6 -9
16 -9 23 0 7 -11 36 -24 65 -13 29 -36 80 -51 113 -111 249 -259 502 -430 735
-54 74 -104 140 -111 147 -7 8 -30 35 -51 61 -21 25 -48 56 -60 68 -13 12 -23
24 -23 28 0 16 -404 404 -464 445 -12 8 -31 25 -43 38 -12 13 -25 23 -28 23
-9 0 -6 -199 5 -300 5 -52 14 -205 19 -339 9 -222 12 -248 31 -273 11 -15 20
-32 20 -38 0 -5 4 -10 8 -10 5 0 17 -16 28 -35 10 -19 22 -35 26 -35 5 0 8 -6
8 -14 0 -8 4 -16 8 -18 11 -4 152 -235 152 -247 0 -5 3 -11 8 -13 10 -4 42
-67 42 -83 0 -7 3 -15 8 -17 4 -1 14 -19 23 -38 9 -19 28 -59 43 -88 14 -30
26 -58 26 -63 0 -5 11 -32 25 -61 14 -28 25 -56 25 -61 0 -5 6 -23 13 -40 22
-52 47 -131 47 -149 0 -10 5 -18 10 -18 6 0 10 -10 10 -22 0 -13 10 -57 21
-98 92 -331 114 -759 60 -1170 -18 -136 -32 -216 -42 -232 -5 -10 -9 -28 -9
-40 -1 -28 -34 -155 -43 -164 -4 -4 -7 -15 -7 -25 0 -16 -24 -103 -40 -144 -4
-11 -20 -54 -35 -95 -31 -84 -61 -156 -75 -182 -6 -10 -10 -25 -10 -33 0 -8
-4 -15 -10 -15 -5 0 -10 -5 -10 -12 0 -11 -60 -138 -70 -148 -3 -3 -14 -23
-25 -45 -11 -22 -44 -78 -73 -125 -29 -47 -58 -94 -65 -104 -7 -11 -20 -29
-30 -40 -10 -12 -28 -37 -40 -56 -12 -19 -26 -40 -32 -46 -5 -6 -21 -25 -35
-43 -103 -133 -255 -294 -383 -406 -38 -33 -74 -65 -80 -70 -7 -6 -32 -26 -57
-45 -25 -19 -51 -40 -58 -47 -7 -7 -17 -13 -21 -13 -4 0 -16 -8 -27 -18 -22
-21 -219 -152 -228 -152 -3 0 -34 -17 -68 -38 -69 -42 -231 -122 -248 -122 -5
0 -10 -4 -10 -9 0 -5 -12 -12 -27 -16 -15 -3 -45 -15 -67 -26 -22 -10 -44 -19
-49 -19 -5 0 -23 -6 -40 -14 -18 -8 -54 -22 -82 -31 -27 -9 -58 -21 -67 -26
-10 -5 -27 -9 -39 -9 -11 0 -29 -5 -40 -10 -10 -6 -38 -15 -61 -20 -24 -5 -74
-16 -113 -25 -95 -23 -149 -33 -290 -52 -169 -24 -683 -24 -840 0 -205 31
-323 53 -360 67 -11 5 -54 16 -95 26 -41 10 -79 21 -85 25 -5 4 -26 10 -45 14
-19 4 -39 10 -45 14 -5 4 -35 15 -65 25 -30 10 -59 23 -65 27 -5 5 -15 9 -21
9 -7 0 -52 18 -99 40 -47 22 -90 40 -95 40 -4 0 -10 3 -12 8 -1 4 -34 23 -73
42 -38 19 -72 38 -73 43 -2 4 -10 7 -17 7 -8 0 -20 6 -27 13 -7 6 -30 21 -50
32 -21 11 -38 22 -38 26 0 4 -8 9 -17 13 -19 6 -54 27 -63 37 -3 3 -20 14 -37
24 -18 11 -33 23 -33 27 0 4 -7 8 -15 8 -8 0 -15 3 -15 8 0 4 -17 18 -38 32
-20 14 -39 27 -42 30 -3 3 -23 20 -45 39 -114 95 -315 284 -315 295 0 2 -17
21 -38 42 -20 22 -51 57 -67 79 -16 22 -40 50 -52 62 -13 12 -23 25 -23 28 0
3 -5 11 -10 18 -6 7 -24 28 -40 47 -16 19 -37 50 -47 68 -10 17 -21 32 -25 32
-5 0 -8 6 -8 14 0 8 -3 16 -8 18 -19 8 -142 221 -217 378 -31 63 -62 128 -70
143 -8 16 -15 37 -15 48 0 10 -4 19 -9 19 -5 0 -13 15 -16 33 -4 17 -11 37
-15 42 -4 6 -10 21 -13 35 -3 14 -13 45 -22 70 -52 139 -103 360 -125 545 -6
50 -16 119 -21 155 -12 76 -7 474 8 605 10 83 16 123 43 255 15 74 71 303 79
325 5 11 16 47 26 80 9 33 21 68 26 77 5 10 9 23 9 29 0 6 7 27 16 47 9 21 22
52 30 70 8 18 14 39 14 47 0 8 5 15 10 15 6 0 10 7 10 16 0 36 214 443 249
474 8 7 29 41 38 60 4 8 9 17 12 20 4 3 26 32 51 65 24 33 49 65 55 72 5 6 21
26 35 44 53 69 190 212 296 309 49 45 81 71 145 122 19 14 48 38 64 52 17 14
33 26 37 26 4 0 13 6 20 13 20 20 139 97 149 97 5 0 9 3 9 8 0 4 17 16 38 27
20 11 43 26 50 32 7 7 19 13 27 13 7 0 15 3 17 8 4 10 222 123 308 159 19 9
43 19 53 24 9 5 52 23 95 39 42 17 86 35 97 39 11 5 36 15 55 21 79 28 119 54
136 86 10 19 22 34 26 34 5 0 8 5 8 11 0 6 6 17 13 24 29 33 37 45 37 54 0 5
7 11 15 15 8 3 15 10 15 16 0 6 18 35 40 65 22 30 40 59 40 65 0 5 4 10 8 10
5 0 17 16 28 35 10 19 22 35 26 35 5 0 8 5 8 10 0 6 5 16 10 23 21 24 100 137
100 142 0 3 9 15 20 27 11 12 20 25 20 30 0 8 -96 10 -116 2z"/>
<path d="M5140 7788 c-80 -77 -332 -324 -560 -549 -228 -224 -531 -522 -674
-661 -389 -381 -699 -690 -724 -721 -12 -15 -22 -32 -22 -37 0 -6 -4 -10 -9
-10 -5 0 -20 -17 -32 -37 -13 -21 -27 -39 -31 -41 -4 -2 -8 -10 -8 -18 0 -8
-4 -14 -8 -14 -15 0 -152 -283 -152 -313 0 -9 -4 -19 -10 -22 -5 -3 -10 -19
-10 -34 0 -15 -4 -31 -9 -36 -13 -15 -31 -117 -43 -251 -12 -136 -1 -339 26
-464 27 -129 28 -135 36 -145 5 -5 11 -27 15 -48 4 -20 11 -40 16 -43 5 -3 9
-12 9 -20 0 -16 79 -185 91 -194 3 -3 9 -15 13 -27 4 -13 11 -23 16 -23 4 0
10 -8 14 -17 8 -26 22 -46 83 -120 10 -12 29 -37 43 -54 42 -55 172 -176 233
-218 12 -8 24 -17 27 -21 11 -12 107 -70 118 -70 5 0 12 -4 14 -8 4 -11 161
-86 223 -107 28 -9 59 -21 70 -25 11 -5 31 -11 45 -14 63 -13 128 -29 165 -39
54 -16 476 -16 530 0 22 6 76 19 120 29 73 16 273 89 285 103 3 3 35 22 73 41
37 19 67 38 67 42 0 4 5 8 11 8 21 0 164 115 249 200 84 83 200 228 200 249 0
5 4 11 9 13 7 2 28 39 82 138 21 38 59 125 59 134 0 6 6 22 13 36 46 91 86
318 86 495 0 111 -15 243 -45 390 -9 44 -20 103 -24 130 -5 28 -16 84 -25 125
-9 41 -20 95 -25 120 -4 25 -15 81 -24 125 -9 44 -21 107 -27 139 -5 33 -12
63 -15 68 -3 5 -10 33 -14 61 -8 46 -24 129 -50 252 -18 87 -42 202 -50 248
-5 26 -12 56 -15 67 -3 11 -10 43 -16 72 -9 48 -25 131 -49 248 -5 25 -16 79
-25 120 -16 74 -21 99 -45 230 -7 36 -16 74 -20 85 -4 11 -13 52 -20 90 -6 39
-15 88 -20 110 -26 116 -42 196 -50 245 -15 87 -25 123 -35 126 -6 2 -75 -60
-155 -138z"/>
</g>
</svg>
